<svg xmlns="http://www.w3.org/2000/svg" width="293.333" height="333.333" preserveAspectRatio="xMidYMid meet" version="1.0" viewBox="0 0 220 250"><metadata>Created by potrace 1.16, written by Peter Selinger 2001-2019</metadata><g fill="#000" stroke="none"><path d="M0 1250 l0 -1250 1100 0 1100 0 0 1250 0 1250 -1100 0 -1100 0 0 -1250z m953 652 l9 -62 44 39 c90 79 240 107 353 66 72 -27 162 -113 199 -191 25 -55 27 -68 26 -189 0 -116 -3 -137 -26 -196 -75 -192 -207 -295 -390 -307 -68 -4 -130 4 -182 24 -14 6 -16 -13 -16 -187 1 -177 8 -271 23 -285 3 -4 32 -7 64 -8 l58 -1 0 -40 0 -39 -248 -1 c-137 0 -250 2 -252 5 -1 3 0 22 2 43 l5 37 53 0 c50 0 54 2 64 31 7 22 11 196 11 536 0 416 -2 509 -14 531 -8 16 -38 41 -66 56 -43 24 -51 32 -48 54 3 22 20 32 148 89 80 34 152 62 160 60 10 -1 18 -22 23 -65z" transform="translate(0.000000,250.000000) scale(0.100000,-0.100000)"/><path d="M1065 1824 c-22 -8 -52 -26 -67 -41 l-28 -27 0 -245 c0 -284 3 -298 80 -337 59 -31 150 -35 202 -10 43 21 92 92 109 160 18 71 7 259 -19 331 -56 153 -155 214 -277 169z" transform="translate(0.000000,250.000000) scale(0.100000,-0.100000)"/></g></svg>